<?xml version="1.0" encoding="utf-8"?>
<!-- Generator: Adobe Illustrator 21.1.0, SVG Export Plug-In . SVG Version: 6.00 Build 0)  -->
<svg version="1.1" id="Layer_1" xmlns="http://www.w3.org/2000/svg" xmlns:xlink="http://www.w3.org/1999/xlink" x="0px" y="0px"
	 viewBox="0 0 159.3 30.7" style="enable-background:new 0 0 159.3 30.7;" xml:space="preserve">
<style type="text/css">
	.st0{fill:#00DC00;}
	.st1{fill:#8E8A86;}
</style>
<g>
	<g>
		<path class="st0" d="M53.4,6c-4.7,0-7.8,3.2-7.8,8.6c0,6.6,4.7,8.6,8.1,8.6c4.3,0,6.7-2.9,6.7-2.9l-2.2-2.2
			c-1.2,1-2.5,1.7-4.5,1.7c-2.6,0-4.4-1.5-4.4-3.7h11.8C61.1,16.1,63.1,6,53.4,6 M49.3,13.2c0-2.8,2.2-4.2,4.5-4.2
			c2.3,0,4.4,1.4,4.4,4.2H49.3z"/>
		<path class="st0" d="M10.1,12.9c-1.5-0.2-5.9,0-5.9-2c0-1.2,1.8-1.8,3.5-1.8c2.7,0,4.5,1.1,5,1.4L15,8.3C14.3,7.8,11.8,6,7.8,6
			C4,6,0.7,8,0.7,11.1c0,4.8,5.8,4.8,8.2,5c1.5,0.1,2.8,0.2,2.8,1.7c0,1.3-2,2.1-3.6,2.1c-2.6,0-4.1-0.8-5.6-2.2L0,20.1
			c2.2,2.2,5.1,3.1,7.8,3.1c4.3,0,7.5-1.9,7.5-5.7C15.3,14.9,13.6,13.4,10.1,12.9"/>
		<path class="st0" d="M22.5,6c-3.7,0-6.2,1.9-6.6,2.3l2.3,2.3c0.5-0.4,2-1.4,4.4-1.4c2.9,0,3.7,1.1,3.7,2.4v1.6l-5.1,0
			c-1.9,0-5.6,0.5-5.6,4.6c0,3.1,1.8,5.3,5.9,5.3c2.1,0,3.7-0.7,4.8-2v1.7H30v-11C30,8,27.6,6,22.5,6 M26.3,16.8c0,3.2-2.3,3-4.3,3
			c-2,0-3.4-0.5-3.4-2c0-1.3,1.1-1.8,3.3-1.8h4.4L26.3,16.8L26.3,16.8z"/>
		<path class="st0" d="M41.5,6.4v1.8C40.2,6.7,38.7,6,36.6,6c-3.5,0-5.3,2-6,4.1c-0.2,0.8-0.3,2.3-0.3,4.5c0,2.1,0,4,0.7,5.4
			c1,2,3.5,3.2,5.5,3.2c2,0,3.7-0.8,4.8-2.1v1c0,1.2-0.4,2-1.2,2.6c-0.8,0.6-1.8,1-3.1,1c-1.2,0-2.4-0.7-3.1-1.1l-2.5,2.5
			c1.6,1.3,3.6,2.2,5.6,2.2c2.2,0,4-0.7,5.6-1.9c1.5-1.2,2.4-3.4,2.4-5.7V6.4H41.5z M41.5,14.6c0,1.3,0,2.2-0.1,2.7
			c-0.2,1.1-1.4,2.5-3.6,2.5c-0.6,0-3.4-0.3-3.7-2.8c-0.1-0.5-0.1-1.1-0.1-2.4c0-1.9,0.1-2.5,0.2-3c0.2-1,1.4-2.4,3.6-2.4
			c2.7,0,3.5,1.8,3.6,2.5C41.4,12.2,41.5,13.3,41.5,14.6"/>
	</g>
	<g>
		<path class="st1" d="M73,23.2h-1.5V0H73V23.2z"/>
		<path class="st1" d="M90.7,23.2h-1.6V12.3c0-2.7-0.9-4.3-3.6-4.3c-2.3,0-4.9,1.5-6,2.5v12.6H78V6.9h1.4L79.4,9
			c1.9-1.3,4.1-2.4,6.3-2.4c3.4,0,4.9,2,4.9,5.6V23.2z"/>
		<path class="st1" d="M102.7,22.6c-0.8,0.5-2.3,1-3.5,1c-3,0-4.1-1.2-4.1-4.1V8.3h-2.6V6.9h2.6V2.3L96.7,2v4.9h4.6v1.4h-4.6v10.8
			c0,2,0.4,3.1,2.7,3.1c1,0,2.2-0.4,2.9-0.9L102.7,22.6z"/>
		<path class="st1" d="M115.1,20.9c0,0.9,0.2,1.3,1,1.3c0.3,0,0.6-0.1,1-0.2l0.1,1c-0.6,0.3-1.1,0.4-1.7,0.4c-1.4,0-1.9-1.1-1.9-2
			c-1.2,1.2-3.2,2.2-5.5,2.2c-4.2,0-4.8-2.9-4.8-4.4c0-4.6,4.2-5.4,8-5.4c0.8,0,1.5,0,2.2,0.1v-1.4c0-3.2-0.8-4.4-3.9-4.4
			c-2.7,0-3.8,1-4.1,3l-1.5-0.3c0.5-3,2.5-4.1,5.8-4.1c3.8,0,5.3,1.4,5.3,5.4L115.1,20.9L115.1,20.9z M113.5,15.1
			C112.8,15,112,15,111,15c-3.3,0-6,0.7-6,4c0,1.8,0.7,3.2,3.4,3.2c2,0,4.1-1,5.2-2.3V15.1z"/>
		<path class="st1" d="M118.2,15.1c0-5.7,2.8-8.5,7.6-8.5c3.1,0,5.6,1.8,5.8,5.3l-1.7,0.2c-0.3-2.8-1.6-4.1-4.3-4.1
			c-2.7,0-5.7,1.5-5.7,6.9c0,5.8,2.8,7.2,5.5,7.2c2.5,0,4.2-1.2,4.7-3.7l1.6,0.3c-0.6,3.5-3.4,4.9-6.2,4.9
			C120,23.5,118.2,20,118.2,15.1z"/>
		<path class="st1" d="M133.5,15.1c0-5.7,2.8-8.5,7.6-8.5c3.1,0,5.6,1.8,5.8,5.3l-1.7,0.2c-0.3-2.8-1.6-4.1-4.3-4.1
			c-2.7,0-5.7,1.5-5.7,6.9c0,5.8,2.8,7.2,5.5,7.2c2.5,0,4.2-1.2,4.7-3.7l1.6,0.3c-0.6,3.5-3.4,4.9-6.2,4.9
			C135.4,23.5,133.5,20,133.5,15.1z"/>
		<path class="st1" d="M158,22.6c-0.8,0.5-2.3,1-3.5,1c-3,0-4.1-1.2-4.1-4.1V8.3h-2.6V6.9h2.6V2.3l1.6-0.3v4.9h4.6v1.4h-4.6v10.8
			c0,2,0.4,3.1,2.7,3.1c1,0,2.2-0.4,2.9-0.9L158,22.6z"/>
	</g>
</g>
</svg>
